<svg width="40" height="40" viewBox="0 0 40 40" fill="none" xmlns="http://www.w3.org/2000/svg">
<rect x="0.5" y="0.5" width="39" height="39" rx="7.5" stroke="#2F3746"/>
<g clip-path="url(#clip0_0_186)">
<path opacity="0.16" d="M12.0985 16.8569C12.6558 14.779 14.792 12.6441 16.8686 12.0867L29.8198 8.61621C31.8964 8.06013 33.129 9.2927 32.5729 11.3693L29.1012 24.3205C28.5438 26.3984 26.4076 28.5333 24.331 29.0906L11.3811 32.5612C9.30445 33.1172 8.07189 31.8847 8.62797 29.8081L12.0985 16.8569Z" fill="#90E0EF"/>
<path d="M6.90761 11.6647C7.46369 9.58688 9.59864 7.45193 11.6765 6.89461L24.6277 3.42407C26.7043 2.86799 27.9381 4.10056 27.3808 6.17717L23.9103 19.1284C23.3529 21.2062 21.218 23.3412 19.1401 23.8985L6.18893 27.369C4.11232 27.9251 2.87976 26.6925 3.43584 24.6159L6.90761 11.6647Z" fill="#90E0EF"/>
</g>
<defs>
<clipPath id="clip0_0_186">
<rect width="29.79" height="29.79" fill="white" transform="translate(3.10938 3.1001)"/>
</clipPath>
</defs>
</svg>
